<?xml version="1.0" standalone="no"?>
<!DOCTYPE svg PUBLIC "-//W3C//DTD SVG 20010904//EN"
 "http://www.w3.org/TR/2001/REC-SVG-20010904/DTD/svg10.dtd">
<svg version="1.0" xmlns="http://www.w3.org/2000/svg"
 width="1072.000000pt" height="519.000000pt" viewBox="0 0 1072.000000 519.000000"
 preserveAspectRatio="xMidYMid meet">
<metadata>
Created by potrace 1.16, written by Peter Selinger 2001-2019
</metadata>
<g transform="translate(0.000000,519.000000) scale(0.100000,-0.100000)"
fill="#000000" stroke="none">
<path d="M440 4955 l0 -65 58 0 c68 0 92 18 92 67 0 45 -27 63 -93 63 l-57 0
0 -65z"/>
<path d="M4643 5013 c3 -5 10 -34 17 -65 11 -57 12 -58 45 -58 32 0 35 3 45
43 6 23 12 46 13 51 2 4 9 -15 16 -43 12 -48 15 -51 45 -51 31 0 33 3 46 53 7
28 15 58 18 65 3 10 -2 13 -19 10 -19 -2 -26 -12 -35 -48 l-11 -45 -15 45
c-13 39 -18 45 -44 45 -24 0 -30 -5 -39 -37 -15 -54 -23 -55 -30 -4 -6 40 -10
46 -32 46 -13 0 -22 -3 -20 -7z"/>
<path d="M767 4989 c-13 -14 -24 -18 -40 -13 -24 8 -27 8 -74 6 -48 -3 -40
-22 10 -24 l42 -1 -37 -4 c-44 -5 -66 -26 -48 -47 8 -10 31 -15 72 -15 50 1
59 3 54 16 -8 19 2 53 15 53 5 0 9 -13 9 -29 0 -30 14 -41 56 -41 27 0 33 17
9 26 -8 4 -15 15 -15 25 0 10 7 19 15 19 8 0 15 5 15 10 0 6 -6 10 -14 10 -8
0 -16 7 -20 15 -8 21 -28 19 -49 -6z"/>
<path d="M5784 4965 c-8 -20 4 -35 29 -35 12 0 29 -5 37 -10 11 -7 4 -10 -27
-10 -24 0 -43 -5 -43 -11 0 -7 19 -9 58 -5 62 6 62 6 141 3 l55 -2 0 40 1 40
-51 3 c-44 3 -54 0 -70 -20 -18 -22 -22 -23 -59 -12 l-40 12 38 1 c56 1 44 21
-13 21 -35 0 -52 -4 -56 -15z"/>
<path d="M9354 4965 c-8 -21 2 -31 38 -41 l33 -8 -37 -3 c-21 -3 -38 -9 -38
-14 0 -7 23 -9 63 -5 79 6 74 6 130 0 60 -8 84 0 67 21 -9 10 -9 15 -1 15 17
0 13 37 -5 44 -35 13 -98 6 -119 -14 -18 -17 -28 -19 -61 -11 l-39 9 43 1 c63
1 51 21 -13 21 -39 0 -57 -4 -61 -15z"/>
<path d="M8924 4496 c-18 -8 -34 -19 -38 -24 -5 -8 -10 -407 -7 -514 1 -10 14
-24 31 -33 25 -13 109 -15 613 -15 577 0 585 0 611 21 l26 21 -2 261 -3 262
-35 17 c-32 17 -82 18 -600 18 -454 -1 -571 -3 -596 -14z m1174 -285 c2 -189
-1 -246 -10 -253 -22 -13 -1132 -10 -1146 4 -13 13 -18 479 -5 491 3 4 266 6
582 5 l576 -3 3 -244z"/>
<path d="M9744 4310 c-21 -38 -45 -70 -52 -70 -7 0 -24 7 -37 16 -27 18 -20
20 -95 -29 -25 -16 -27 -16 -63 14 l-37 31 -33 -29 c-18 -15 -45 -43 -60 -60
-25 -29 -27 -34 -12 -39 11 -5 30 6 59 35 39 38 66 52 66 34 0 -5 12 -16 26
-26 25 -18 25 -18 74 13 l49 32 30 -21 c16 -12 36 -21 44 -21 13 0 117 160
117 181 0 5 -8 9 -18 9 -12 0 -32 -24 -58 -70z"/>
<path d="M9250 4220 l0 -150 270 0 c170 0 270 4 270 10 0 6 -94 11 -247 12
l-248 3 -3 138 c-2 129 -4 137 -22 137 -19 0 -20 -7 -20 -150z"/>
<path d="M1013 4286 c-85 -16 -147 -44 -151 -68 -12 -63 340 -109 568 -74 99
15 195 50 195 70 0 17 -51 46 -110 62 -83 23 -402 29 -502 10z"/>
<path d="M822 4113 c3 -67 3 -68 43 -90 65 -37 167 -55 335 -60 177 -6 309 11
398 52 58 27 59 28 65 103 4 57 1 60 -43 37 -158 -81 -624 -78 -768 6 l-33 19
3 -67z"/>
<path d="M820 3959 c0 -72 17 -91 105 -118 205 -64 588 -46 701 31 29 20 33
29 36 75 2 29 2 57 0 62 -1 5 -29 -2 -60 -15 -179 -72 -545 -72 -724 0 l-58
24 0 -59z"/>
<path d="M820 3801 c0 -52 3 -62 26 -80 73 -57 315 -92 508 -73 142 14 238 39
278 72 28 23 31 33 33 83 0 31 -1 57 -2 57 -2 0 -17 -7 -33 -15 -16 -8 -69
-25 -117 -37 -76 -19 -114 -22 -278 -22 -162 1 -202 4 -269 22 -43 12 -92 29
-109 37 -16 8 -32 15 -34 15 -1 0 -3 -27 -3 -59z"/>
<path d="M9335 3843 c-252 -2 -463 -7 -467 -11 -11 -11 -78 -236 -78 -261 l0
-21 719 0 c396 0 722 3 724 8 5 9 -13 89 -43 195 -17 59 -28 81 -44 87 -11 4
-95 7 -186 7 -91 -1 -372 -3 -625 -4z m353 -170 l3 -23 -171 0 c-153 0 -171 2
-166 16 3 9 6 20 6 25 0 6 65 8 163 7 159 -3 162 -3 165 -25z m492 -68 c0 -8
-10 -17 -22 -20 -33 -8 -1295 -1 -1303 7 -26 26 30 28 666 28 575 0 659 -2
659 -15z"/>
<path d="M567 3568 c-28 -22 -32 -73 -8 -97 44 -44 131 -15 131 44 0 53 -78
86 -123 53z"/>
<path d="M8901 2963 c-20 -17 -21 -26 -22 -276 0 -184 3 -263 11 -273 7 -7 29
-18 49 -24 40 -11 1056 -14 1134 -4 88 12 87 9 87 299 l0 254 -26 20 c-26 21
-35 21 -619 21 -550 0 -594 -1 -614 -17z m1194 -278 l0 -250 -569 -3 c-412 -1
-573 1 -582 9 -19 16 -20 469 -2 487 9 9 147 12 583 10 l570 -3 0 -250z"/>
<path d="M9317 2833 c-4 -3 -7 -82 -7 -174 0 -156 1 -169 19 -179 29 -15 353
-13 374 3 16 11 17 31 15 182 l-3 170 -35 2 c-32 2 -33 2 -12 -9 21 -11 22
-16 22 -159 0 -177 5 -171 -133 -167 l-92 3 -3 47 -3 47 -62 3 -62 3 -3 100
c-3 93 -1 100 20 117 l23 18 -26 0 c-14 0 -29 -3 -32 -7z"/>
<path d="M1013 2815 c-85 -15 -147 -43 -151 -68 -5 -26 68 -54 190 -73 226
-35 578 11 566 74 -4 25 -67 52 -156 67 -97 18 -353 18 -449 0z"/>
<path d="M822 2639 l3 -64 55 -27 c74 -37 206 -58 360 -58 154 0 286 21 360
58 l55 27 3 63 c2 34 1 62 -1 62 -3 0 -25 -9 -51 -20 -78 -35 -190 -52 -351
-53 -199 -1 -288 14 -418 68 -16 7 -18 2 -15 -56z"/>
<path d="M820 2485 c0 -61 1 -64 34 -84 75 -47 177 -64 376 -65 202 0 296 14
380 57 l45 23 3 67 3 68 -38 -19 c-70 -36 -181 -55 -343 -60 -174 -5 -301 12
-402 52 l-58 24 0 -63z"/>
<path d="M820 2332 c0 -63 8 -76 65 -105 44 -22 165 -45 280 -53 178 -12 403
25 469 77 23 18 26 28 26 79 l0 59 -43 -18 c-96 -41 -194 -56 -377 -56 -185 0
-291 16 -374 56 -22 11 -41 19 -43 19 -2 0 -3 -26 -3 -58z"/>
<path d="M8872 2312 c-7 -5 -19 -32 -27 -60 -8 -29 -22 -76 -31 -104 -9 -29
-17 -69 -18 -88 l-1 -35 711 -3 c605 -2 713 0 723 12 13 15 10 27 -41 201
l-23 80 -640 2 c-352 2 -646 -1 -653 -5z m817 -154 c5 -13 7 -25 5 -27 -4 -4
-337 -1 -342 4 -2 2 1 13 8 24 10 20 19 21 166 21 151 0 155 -1 163 -22z m481
-68 c44 -27 -19 -30 -660 -28 -487 2 -654 6 -657 15 -2 6 4 13 14 16 36 9
1288 7 1303 -3z"/>
<path d="M560 2000 c-43 -43 -10 -110 55 -110 22 0 43 8 55 20 43 43 10 110
-55 110 -22 0 -43 -8 -55 -20z"/>
<path d="M8905 1437 l-27 -23 0 -254 c1 -243 2 -254 22 -274 20 -21 29 -21
608 -24 571 -2 588 -2 620 18 l32 20 0 258 c0 250 -1 260 -21 278 -20 18 -47
19 -614 22 l-593 2 -27 -23z m1183 -29 c17 -17 17 -479 0 -496 -16 -16 -1109
-17 -1139 -2 -18 10 -19 24 -19 245 0 199 2 236 16 249 14 14 79 16 573 16
420 0 560 -3 569 -12z"/>
<path d="M9660 1165 l0 -135 35 0 35 0 0 135 0 135 -35 0 -35 0 0 -135z"/>
<path d="M1160 1196 l0 -85 -33 -6 c-19 -4 -66 -5 -106 -2 -43 2 -74 0 -78 -7
-4 -5 -6 -70 -5 -144 1 -99 6 -141 16 -157 21 -31 86 -45 215 -45 129 0 113
-14 180 150 39 95 51 115 67 113 10 -1 42 -5 69 -8 35 -5 46 -4 35 4 -8 5 -36
13 -62 16 -26 4 -50 10 -53 15 -3 4 25 21 61 36 l66 29 -4 58 c-4 46 -10 63
-31 85 -27 27 -29 27 -182 30 l-155 3 0 -85z"/>
<path d="M885 1183 c-46 -9 -265 -85 -265 -92 0 -4 23 -40 50 -79 57 -82 61
-75 -55 -112 -38 -12 -74 -26 -79 -30 -4 -5 7 -29 25 -53 19 -25 62 -86 97
-135 66 -95 90 -112 158 -112 39 0 402 123 422 144 12 12 -5 14 -115 18 -106
3 -135 7 -163 24 -55 32 -60 51 -57 219 l2 150 60 6 60 6 -62 1 c-62 2 -73 8
-52 29 13 13 1 21 -26 16z"/>
<path d="M1682 1077 c-11 -24 -25 -60 -31 -80 -7 -20 -16 -39 -19 -41 -4 -2
-52 5 -106 16 -115 23 -101 31 -148 -87 -16 -38 -33 -79 -38 -90 -36 -74 -34
-114 6 -140 34 -22 411 -98 451 -90 58 11 79 41 154 225 39 96 73 185 76 197
4 17 -3 31 -25 51 -24 23 -50 32 -148 51 -66 12 -127 25 -136 27 -12 4 -22 -7
-36 -39z"/>
<path d="M8877 788 c-16 -13 -67 -155 -67 -187 0 -9 -5 -22 -11 -28 -6 -6 -9
-23 -7 -39 l3 -29 717 -3 c676 -2 717 -1 720 15 4 17 -39 191 -60 244 -6 15
-18 29 -27 33 -9 3 -294 6 -634 6 -478 0 -621 -3 -634 -12z m807 -150 c8 -12
13 -25 10 -30 -8 -12 -344 -10 -344 3 0 6 5 19 10 30 10 17 23 19 160 19 141
0 150 -1 164 -22z m496 -83 c0 -13 -80 -15 -659 -15 -363 0 -662 4 -665 9 -3
4 -3 11 1 15 3 3 303 6 665 6 578 0 658 -2 658 -15z"/>
</g>
</svg>
